<svg id="bbc88faa-5a3b-49cf-bdbb-6c9ab11be594" data-name="Layer 1" xmlns="http://www.w3.org/2000/svg" width="728" height="754.88525" viewBox="0 0 728 754.88525"><rect x="514.67011" y="302.6311" width="33" height="524" transform="translate(-458.65432 311.24592) rotate(-33.25976)" fill="#e6e6e6"/><path d="M335.58256,171.60615l63.84438,97.34271a8.5,8.5,0,0,1-14.21528,9.32341L311.81484,166.36508a60.62682,60.62682,0,0,0-29.14936,4.78729L362.63446,293.08a8.5,8.5,0,0,1-14.21528,9.3234l-79.969-121.92766A60.62685,60.62685,0,0,0,252.44516,205.304L325.842,317.2112a8.5,8.5,0,0,1-14.21528,9.3234l-63.84438-97.3427c-1.6398,27.14157,7.20944,59.3114,26.60329,88.881,36.04421,54.95614,94.83957,80.109,131.32307,56.18052s36.8396-87.87721.79539-142.83336C387.11022,201.85046,361.13005,180.91634,335.58256,171.60615Z" transform="translate(-236 -72.55738)" fill="#e6e6e6"/><rect x="256" y="204" width="33" height="524" fill="#e6e6e6"/><ellipse cx="272" cy="119" rx="79" ry="119" fill="#e6e6e6"/><ellipse cx="272" cy="119" rx="65" ry="97.91139" fill="#ccc"/><ellipse cx="364" cy="734" rx="364" ry="20.88525" fill="#e6e6e6"/><path d="M815.26782,806.25045a1162.796,1162.796,0,0,0-412.53564,0A15.04906,15.04906,0,0,1,385,791.45826V604.55738H833V791.45826A15.04906,15.04906,0,0,1,815.26782,806.25045Z" transform="translate(-236 -72.55738)" fill="#0aa89e"/><path d="M792,466.55738a92.85808,92.85808,0,0,0-30.39526,5.0863,179.055,179.055,0,0,0-324.4441-1.63928,93.00486,93.00486,0,1,0,12.16987,174.74988,179.02647,179.02647,0,0,0,300.7481-2.16382A93.00664,93.00664,0,1,0,792,466.55738Z" transform="translate(-236 -72.55738)" fill="#0aa89e"/><path d="M421,546.55738h-2A178.40222,178.40222,0,0,1,436.24707,469.572l1.80762.85644A176.41047,176.41047,0,0,0,421,546.55738Z" transform="translate(-236 -72.55738)" fill="#3f3d56"/><path d="M779,546.55738h-2a176.52632,176.52632,0,0,0-16.29395-74.501l1.81641-.83789A178.51046,178.51046,0,0,1,779,546.55738Z" transform="translate(-236 -72.55738)" fill="#3f3d56"/><path d="M385.24121,691.52808l-.48242-1.94141c.56445-.13964,57.40332-14.09961,140.70019-21.02636,76.88086-6.39258,192.68653-7.93457,307.78516,21.02734l-.48828,1.93945C717.93945,662.63746,602.38672,664.17261,525.667,670.55054,442.519,677.46167,385.8042,691.38843,385.24121,691.52808Z" transform="translate(-236 -72.55738)" fill="#3f3d56"/><path d="M385.24121,718.52808l-.48242-1.94141c.56445-.13964,57.40332-14.09961,140.70019-21.02636,76.88086-6.39258,192.68653-7.93457,307.78516,21.02734l-.48828,1.93945C717.93945,689.63746,602.38672,691.17456,525.667,697.55054,442.519,704.46167,385.8042,718.38843,385.24121,718.52808Z" transform="translate(-236 -72.55738)" fill="#3f3d56"/><path d="M385.24121,745.52808l-.48242-1.94141c.56445-.13964,57.40332-14.09961,140.70019-21.02636,76.88086-6.39258,192.68653-7.93457,307.78516,21.02734l-.48828,1.93945C717.93945,716.63746,602.38672,718.17456,525.667,724.55054,442.519,731.46167,385.8042,745.38843,385.24121,745.52808Z" transform="translate(-236 -72.55738)" fill="#3f3d56"/></svg>