<svg xmlns="http://www.w3.org/2000/svg" id="e8a6e089-f0a2-4336-8fc5-733c88302415" data-name="Layer 1" width="241.75402" height="241.75402" viewBox="0 0 1000 441.75402"><title>breakfast</title><circle xmlns="http://www.w3.org/2000/svg" cx="444.50808" cy="241.75402" r="141.75402" fill="#3f3d56"/>
<path xmlns="http://www.w3.org/2000/svg" id="Path_222" data-name="Path 222" d="M706.184,502.6A92.987,92.987,0,1,1,613.2,409.61,92.987,92.987,0,0,1,706.184,502.6ZM602.451,551.82l68.977-68.977a5.993,5.993,0,0,0,0-8.487l-8.487-8.425a5.981,5.981,0,0,0-8.475,0l-56.258,56.259-26.268-26.33a6.018,6.018,0,0,0-8.487,0l-8.487,8.537a6.018,6.018,0,0,0,0,8.487l39,38.986a5.993,5.993,0,0,0,8.487,0Z" transform="translate(-168.541 -264.411)" fill="#0aa89e"/></svg>